<svg width="85" height="34" viewBox="0 0 85 34" fill="none" xmlns="http://www.w3.org/2000/svg">
<path d="M0 8C0 3.58172 3.58172 0 8 0H77C81.4183 0 85 3.58172 85 8V26C85 30.4183 81.4183 34 77 34H8C3.58172 34 0 30.4183 0 26V8Z" fill="#1F2A37"/>
<g clip-path="url(#clip0_5_2094)">
<path d="M15 23.6667V20.3333M15 13.6667V10.3333M13.3334 12H16.6667M13.3334 22H16.6667M20.6667 11L19.5106 14.0059C19.3226 14.4947 19.2286 14.7391 19.0824 14.9447C18.9528 15.1269 18.7936 15.2861 18.6114 15.4157C18.4058 15.5619 18.1614 15.6559 17.6726 15.8439L14.6667 17L17.6726 18.1561C18.1614 18.3441 18.4058 18.4381 18.6114 18.5843C18.7936 18.7139 18.9528 18.8731 19.0824 19.0553C19.2286 19.2609 19.3226 19.5053 19.5106 19.9941L20.6667 23L21.8228 19.9941C22.0108 19.5053 22.1048 19.2609 22.251 19.0553C22.3806 18.8731 22.5398 18.7139 22.722 18.5843C22.9276 18.4381 23.172 18.3441 23.6608 18.1561L26.6667 17L23.6608 15.8439C23.172 15.6559 22.9276 15.5619 22.722 15.4157C22.5398 15.2861 22.3806 15.1269 22.251 14.9447C22.1048 14.7391 22.0108 14.4947 21.8228 14.0059L20.6667 11Z" stroke="white" stroke-width="1.6" stroke-linecap="round" stroke-linejoin="round"/>
</g>
<path d="M36.9588 21V12.2727H42.4304V13.4062H38.2756V16.0653H42.1449V17.1946H38.2756V19.8665H42.4815V21H36.9588ZM45.3612 17.1136V21H44.087V14.4545H45.31V15.5199H45.391C45.5415 15.1733 45.7773 14.8949 46.0984 14.6847C46.4222 14.4744 46.8299 14.3693 47.3214 14.3693C47.7674 14.3693 48.158 14.4631 48.4933 14.6506C48.8285 14.8352 49.0884 15.1108 49.2731 15.4773C49.4577 15.8437 49.5501 16.2969 49.5501 16.8366V21H48.2759V16.9901C48.2759 16.5156 48.1523 16.1449 47.9052 15.8778C47.658 15.608 47.3185 15.473 46.8867 15.473C46.5913 15.473 46.3285 15.5369 46.0984 15.6648C45.8711 15.7926 45.6907 15.9801 45.5572 16.2273C45.4265 16.4716 45.3612 16.767 45.3612 17.1136ZM51.2589 21V14.4545H52.4904V15.4943H52.5586C52.6779 15.142 52.8881 14.8651 53.1893 14.6634C53.4933 14.4588 53.837 14.3565 54.2205 14.3565C54.3001 14.3565 54.3938 14.3594 54.5018 14.3651C54.6126 14.3707 54.6992 14.3778 54.7617 14.3864V15.6051C54.7106 15.5909 54.6197 15.5753 54.489 15.5582C54.3583 15.5384 54.2276 15.5284 54.0969 15.5284C53.7958 15.5284 53.5273 15.5923 53.2915 15.7202C53.0586 15.8452 52.8739 16.0199 52.7376 16.2443C52.6012 16.4659 52.533 16.7187 52.533 17.0028V21H51.2589ZM55.8643 21V14.4545H57.1385V21H55.8643ZM56.5078 13.4446C56.2862 13.4446 56.0959 13.3707 55.9368 13.223C55.7805 13.0724 55.7024 12.8935 55.7024 12.6861C55.7024 12.4759 55.7805 12.2969 55.9368 12.1491C56.0959 11.9986 56.2862 11.9233 56.5078 11.9233C56.7294 11.9233 56.9183 11.9986 57.0746 12.1491C57.2337 12.2969 57.3132 12.4759 57.3132 12.6861C57.3132 12.8935 57.2337 13.0724 57.0746 13.223C56.9183 13.3707 56.7294 13.4446 56.5078 13.4446ZM61.6097 21.1321C60.9762 21.1321 60.4308 20.9886 59.9734 20.7017C59.5188 20.4119 59.1694 20.0128 58.9251 19.5043C58.6808 18.9957 58.5586 18.4134 58.5586 17.7571C58.5586 17.0923 58.6836 16.5057 58.9336 15.9972C59.1836 15.4858 59.5359 15.0866 59.9904 14.7997C60.445 14.5128 60.9805 14.3693 61.5969 14.3693C62.0941 14.3693 62.5373 14.4616 62.9265 14.6463C63.3157 14.8281 63.6296 15.0838 63.8683 15.4134C64.1097 15.7429 64.2532 16.1278 64.2987 16.5682H63.0586C62.9904 16.2614 62.8342 15.9972 62.5898 15.7756C62.3484 15.554 62.0245 15.4432 61.6183 15.4432C61.2631 15.4432 60.9521 15.5369 60.685 15.7244C60.4208 15.9091 60.2148 16.1733 60.0671 16.517C59.9194 16.858 59.8455 17.2614 59.8455 17.7273C59.8455 18.2045 59.918 18.6165 60.0629 18.9631C60.2077 19.3097 60.4123 19.5781 60.6765 19.7685C60.9435 19.9588 61.2575 20.054 61.6183 20.054C61.8597 20.054 62.0785 20.0099 62.2745 19.9219C62.4734 19.831 62.6396 19.7017 62.7731 19.5341C62.9094 19.3665 63.0046 19.1648 63.0586 18.929H64.2987C64.2532 19.3523 64.1154 19.7301 63.8853 20.0625C63.6552 20.3949 63.3469 20.6562 62.9606 20.8466C62.5771 21.0369 62.1268 21.1321 61.6097 21.1321ZM66.9354 17.1136V21H65.6612V12.2727H66.9183V15.5199H66.9993C67.1527 15.1676 67.3871 14.8878 67.7024 14.6804C68.0178 14.473 68.4297 14.3693 68.9382 14.3693C69.3871 14.3693 69.7791 14.4616 70.1143 14.6463C70.4524 14.831 70.7138 15.1065 70.8984 15.473C71.0859 15.8366 71.1797 16.2912 71.1797 16.8366V21H69.9055V16.9901C69.9055 16.5099 69.782 16.1378 69.5348 15.8736C69.2876 15.6065 68.9439 15.473 68.5036 15.473C68.2024 15.473 67.9325 15.5369 67.6939 15.6648C67.4581 15.7926 67.272 15.9801 67.1357 16.2273C67.0021 16.4716 66.9354 16.767 66.9354 17.1136Z" fill="white"/>
<defs>
<clipPath id="clip0_5_2094">
<rect width="16" height="16" fill="white" transform="translate(12 9)"/>
</clipPath>
</defs>
</svg>
